<mxfile host="app.diagrams.net" modified="2023-05-02T13:42:50.326Z" agent="Mozilla/5.0 (Windows NT 10.0; Win64; x64) AppleWebKit/537.36 (KHTML, like Gecko) Chrome/112.0.0.0 Safari/537.36" etag="RHmwsiwVi_VLMpkcB3ip" version="21.2.1" type="device">
  <diagram name="페이지-1" id="gP_7Zujz9RPC_gEFdMSO">
    <mxGraphModel dx="989" dy="510" grid="1" gridSize="10" guides="1" tooltips="1" connect="1" arrows="1" fold="1" page="1" pageScale="1" pageWidth="827" pageHeight="1169" math="0" shadow="0">
      <root>
        <mxCell id="0" />
        <mxCell id="1" parent="0" />
        <mxCell id="rm1AYg226iiFqYWQDrqO-1" value="회원아이디:작성자아이디" style="rhombus;whiteSpace=wrap;html=1;fontStyle=1" vertex="1" parent="1">
          <mxGeometry x="414" y="140" width="206" height="50" as="geometry" />
        </mxCell>
        <mxCell id="rm1AYg226iiFqYWQDrqO-11" value="" style="edgeStyle=orthogonalEdgeStyle;rounded=0;orthogonalLoop=1;jettySize=auto;html=1;" edge="1" parent="1" source="rm1AYg226iiFqYWQDrqO-2" target="rm1AYg226iiFqYWQDrqO-7">
          <mxGeometry relative="1" as="geometry" />
        </mxCell>
        <mxCell id="rm1AYg226iiFqYWQDrqO-35" value="1" style="edgeStyle=orthogonalEdgeStyle;rounded=0;orthogonalLoop=1;jettySize=auto;html=1;entryX=0;entryY=0.5;entryDx=0;entryDy=0;fontSize=13;fontStyle=1" edge="1" parent="1" source="rm1AYg226iiFqYWQDrqO-2" target="rm1AYg226iiFqYWQDrqO-1">
          <mxGeometry x="0.8721" y="15" relative="1" as="geometry">
            <mxPoint x="400" y="160" as="targetPoint" />
            <Array as="points">
              <mxPoint x="270" y="165" />
            </Array>
            <mxPoint as="offset" />
          </mxGeometry>
        </mxCell>
        <mxCell id="rm1AYg226iiFqYWQDrqO-2" value="회원" style="rounded=0;whiteSpace=wrap;html=1;" vertex="1" parent="1">
          <mxGeometry x="230" y="240" width="80" height="30" as="geometry" />
        </mxCell>
        <mxCell id="rm1AYg226iiFqYWQDrqO-3" value="아이디" style="ellipse;whiteSpace=wrap;html=1;fontColor=#ff0000;fontStyle=1" vertex="1" parent="1">
          <mxGeometry x="30" y="320" width="60" height="30" as="geometry" />
        </mxCell>
        <mxCell id="rm1AYg226iiFqYWQDrqO-5" value="비밀번호" style="ellipse;whiteSpace=wrap;html=1;" vertex="1" parent="1">
          <mxGeometry x="100" y="320" width="60" height="30" as="geometry" />
        </mxCell>
        <mxCell id="rm1AYg226iiFqYWQDrqO-6" value="이름" style="ellipse;whiteSpace=wrap;html=1;" vertex="1" parent="1">
          <mxGeometry x="170" y="320" width="60" height="30" as="geometry" />
        </mxCell>
        <mxCell id="rm1AYg226iiFqYWQDrqO-7" value="전화번호" style="ellipse;whiteSpace=wrap;html=1;" vertex="1" parent="1">
          <mxGeometry x="240" y="320" width="60" height="30" as="geometry" />
        </mxCell>
        <mxCell id="rm1AYg226iiFqYWQDrqO-8" value="주소" style="ellipse;whiteSpace=wrap;html=1;" vertex="1" parent="1">
          <mxGeometry x="310" y="320" width="60" height="30" as="geometry" />
        </mxCell>
        <mxCell id="rm1AYg226iiFqYWQDrqO-9" value="이메일" style="ellipse;whiteSpace=wrap;html=1;" vertex="1" parent="1">
          <mxGeometry x="380" y="320" width="60" height="30" as="geometry" />
        </mxCell>
        <mxCell id="rm1AYg226iiFqYWQDrqO-10" value="등록일" style="ellipse;whiteSpace=wrap;html=1;" vertex="1" parent="1">
          <mxGeometry x="450" y="320" width="60" height="30" as="geometry" />
        </mxCell>
        <mxCell id="rm1AYg226iiFqYWQDrqO-12" value="" style="endArrow=classic;html=1;rounded=0;exitX=0.5;exitY=1;exitDx=0;exitDy=0;entryX=0.5;entryY=0;entryDx=0;entryDy=0;" edge="1" parent="1" source="rm1AYg226iiFqYWQDrqO-2" target="rm1AYg226iiFqYWQDrqO-3">
          <mxGeometry width="50" height="50" relative="1" as="geometry">
            <mxPoint x="390" y="410" as="sourcePoint" />
            <mxPoint x="440" y="360" as="targetPoint" />
          </mxGeometry>
        </mxCell>
        <mxCell id="rm1AYg226iiFqYWQDrqO-13" value="" style="endArrow=classic;html=1;rounded=0;exitX=0.5;exitY=1;exitDx=0;exitDy=0;entryX=0.5;entryY=0;entryDx=0;entryDy=0;" edge="1" parent="1" source="rm1AYg226iiFqYWQDrqO-2" target="rm1AYg226iiFqYWQDrqO-5">
          <mxGeometry width="50" height="50" relative="1" as="geometry">
            <mxPoint x="390" y="410" as="sourcePoint" />
            <mxPoint x="440" y="360" as="targetPoint" />
          </mxGeometry>
        </mxCell>
        <mxCell id="rm1AYg226iiFqYWQDrqO-14" value="" style="endArrow=classic;html=1;rounded=0;exitX=0.5;exitY=1;exitDx=0;exitDy=0;entryX=0.5;entryY=0;entryDx=0;entryDy=0;" edge="1" parent="1" source="rm1AYg226iiFqYWQDrqO-2" target="rm1AYg226iiFqYWQDrqO-6">
          <mxGeometry width="50" height="50" relative="1" as="geometry">
            <mxPoint x="210" y="450" as="sourcePoint" />
            <mxPoint x="260" y="400" as="targetPoint" />
          </mxGeometry>
        </mxCell>
        <mxCell id="rm1AYg226iiFqYWQDrqO-15" value="" style="endArrow=classic;html=1;rounded=0;exitX=0.5;exitY=1;exitDx=0;exitDy=0;entryX=0.5;entryY=0;entryDx=0;entryDy=0;" edge="1" parent="1" source="rm1AYg226iiFqYWQDrqO-2" target="rm1AYg226iiFqYWQDrqO-10">
          <mxGeometry width="50" height="50" relative="1" as="geometry">
            <mxPoint x="390" y="410" as="sourcePoint" />
            <mxPoint x="440" y="360" as="targetPoint" />
          </mxGeometry>
        </mxCell>
        <mxCell id="rm1AYg226iiFqYWQDrqO-16" value="" style="endArrow=classic;html=1;rounded=0;exitX=0.5;exitY=1;exitDx=0;exitDy=0;entryX=0.5;entryY=0;entryDx=0;entryDy=0;" edge="1" parent="1" source="rm1AYg226iiFqYWQDrqO-2" target="rm1AYg226iiFqYWQDrqO-9">
          <mxGeometry width="50" height="50" relative="1" as="geometry">
            <mxPoint x="390" y="410" as="sourcePoint" />
            <mxPoint x="440" y="360" as="targetPoint" />
          </mxGeometry>
        </mxCell>
        <mxCell id="rm1AYg226iiFqYWQDrqO-17" value="" style="endArrow=classic;html=1;rounded=0;exitX=0.5;exitY=1;exitDx=0;exitDy=0;entryX=0.5;entryY=0;entryDx=0;entryDy=0;" edge="1" parent="1" source="rm1AYg226iiFqYWQDrqO-2" target="rm1AYg226iiFqYWQDrqO-8">
          <mxGeometry width="50" height="50" relative="1" as="geometry">
            <mxPoint x="390" y="410" as="sourcePoint" />
            <mxPoint x="440" y="360" as="targetPoint" />
          </mxGeometry>
        </mxCell>
        <mxCell id="rm1AYg226iiFqYWQDrqO-18" value="" style="edgeStyle=orthogonalEdgeStyle;rounded=0;orthogonalLoop=1;jettySize=auto;html=1;" edge="1" source="rm1AYg226iiFqYWQDrqO-19" target="rm1AYg226iiFqYWQDrqO-23" parent="1">
          <mxGeometry relative="1" as="geometry" />
        </mxCell>
        <mxCell id="rm1AYg226iiFqYWQDrqO-37" value="N" style="edgeStyle=orthogonalEdgeStyle;rounded=0;orthogonalLoop=1;jettySize=auto;html=1;entryX=1;entryY=0.5;entryDx=0;entryDy=0;fontSize=13;fontStyle=1" edge="1" parent="1" source="rm1AYg226iiFqYWQDrqO-19" target="rm1AYg226iiFqYWQDrqO-1">
          <mxGeometry x="0.6571" y="-15" relative="1" as="geometry">
            <mxPoint x="670" y="160" as="targetPoint" />
            <Array as="points">
              <mxPoint x="720" y="165" />
            </Array>
            <mxPoint as="offset" />
          </mxGeometry>
        </mxCell>
        <mxCell id="rm1AYg226iiFqYWQDrqO-19" value="게시글" style="rounded=0;whiteSpace=wrap;html=1;" vertex="1" parent="1">
          <mxGeometry x="680" y="240" width="80" height="30" as="geometry" />
        </mxCell>
        <mxCell id="rm1AYg226iiFqYWQDrqO-21" value="게시글번호" style="ellipse;whiteSpace=wrap;html=1;fontSize=11;fontColor=#ff0000;fontStyle=1" vertex="1" parent="1">
          <mxGeometry x="550" y="320" width="60" height="30" as="geometry" />
        </mxCell>
        <mxCell id="rm1AYg226iiFqYWQDrqO-22" value="작성자" style="ellipse;whiteSpace=wrap;html=1;fontColor=#0011ff;fontStyle=1" vertex="1" parent="1">
          <mxGeometry x="620" y="320" width="60" height="30" as="geometry" />
        </mxCell>
        <mxCell id="rm1AYg226iiFqYWQDrqO-23" value="제목" style="ellipse;whiteSpace=wrap;html=1;" vertex="1" parent="1">
          <mxGeometry x="690" y="320" width="60" height="30" as="geometry" />
        </mxCell>
        <mxCell id="rm1AYg226iiFqYWQDrqO-24" value="내용" style="ellipse;whiteSpace=wrap;html=1;" vertex="1" parent="1">
          <mxGeometry x="760" y="320" width="60" height="30" as="geometry" />
        </mxCell>
        <mxCell id="rm1AYg226iiFqYWQDrqO-25" value="등록일" style="ellipse;whiteSpace=wrap;html=1;" vertex="1" parent="1">
          <mxGeometry x="830" y="320" width="60" height="30" as="geometry" />
        </mxCell>
        <mxCell id="rm1AYg226iiFqYWQDrqO-28" value="" style="endArrow=classic;html=1;rounded=0;exitX=0.5;exitY=1;exitDx=0;exitDy=0;entryX=0.5;entryY=0;entryDx=0;entryDy=0;" edge="1" source="rm1AYg226iiFqYWQDrqO-19" target="rm1AYg226iiFqYWQDrqO-21" parent="1">
          <mxGeometry width="50" height="50" relative="1" as="geometry">
            <mxPoint x="840" y="410" as="sourcePoint" />
            <mxPoint x="890" y="360" as="targetPoint" />
          </mxGeometry>
        </mxCell>
        <mxCell id="rm1AYg226iiFqYWQDrqO-29" value="" style="endArrow=classic;html=1;rounded=0;exitX=0.5;exitY=1;exitDx=0;exitDy=0;entryX=0.5;entryY=0;entryDx=0;entryDy=0;" edge="1" source="rm1AYg226iiFqYWQDrqO-19" target="rm1AYg226iiFqYWQDrqO-22" parent="1">
          <mxGeometry width="50" height="50" relative="1" as="geometry">
            <mxPoint x="660" y="450" as="sourcePoint" />
            <mxPoint x="710" y="400" as="targetPoint" />
          </mxGeometry>
        </mxCell>
        <mxCell id="rm1AYg226iiFqYWQDrqO-31" value="" style="endArrow=classic;html=1;rounded=0;exitX=0.5;exitY=1;exitDx=0;exitDy=0;entryX=0.5;entryY=0;entryDx=0;entryDy=0;" edge="1" source="rm1AYg226iiFqYWQDrqO-19" target="rm1AYg226iiFqYWQDrqO-25" parent="1">
          <mxGeometry width="50" height="50" relative="1" as="geometry">
            <mxPoint x="840" y="410" as="sourcePoint" />
            <mxPoint x="890" y="360" as="targetPoint" />
          </mxGeometry>
        </mxCell>
        <mxCell id="rm1AYg226iiFqYWQDrqO-32" value="" style="endArrow=classic;html=1;rounded=0;exitX=0.5;exitY=1;exitDx=0;exitDy=0;entryX=0.5;entryY=0;entryDx=0;entryDy=0;" edge="1" source="rm1AYg226iiFqYWQDrqO-19" target="rm1AYg226iiFqYWQDrqO-24" parent="1">
          <mxGeometry width="50" height="50" relative="1" as="geometry">
            <mxPoint x="840" y="410" as="sourcePoint" />
            <mxPoint x="890" y="360" as="targetPoint" />
          </mxGeometry>
        </mxCell>
      </root>
    </mxGraphModel>
  </diagram>
</mxfile>
